<svg xmlns="http://www.w3.org/2000/svg" viewBox="0 0 20 20" id="star"><linearGradient id="a" x1="3.063" x2="16.937" y1="11" y2="11" gradientUnits="userSpaceOnUse"><stop offset="0" stop-color="#ffc80b"></stop><stop offset="1" stop-color="#e89318"></stop></linearGradient><path fill="url(#a)" d="m10.4 4.7 1.8 3.6c.1.1.2.2.4.3l3.9.6c.4.1.6.6.3.9L14 12.9c-.1.1-.2.3-.1.4l.7 3.9c.1.4-.4.7-.7.5l-3.5-1.8c-.1-.1-.3-.1-.5 0l-3.5 1.8c-.4.2-.8-.1-.7-.5l.7-3.9c0-.2 0-.3-.1-.4l-3.1-3c-.3-.3-.1-.8.3-.8l3.9-.6c.2 0 .3-.1.4-.3l1.8-3.6c.1-.3.7-.3.8.1z"></path></svg>