<svg xmlns="http://www.w3.org/2000/svg" width="32" height="32" id="three"><g color="#000" font-family="sans-serif" font-weight="400"><path fill="#2b4255" style="line-height:normal;text-indent:0;text-align:start;text-decoration-line:none;text-decoration-style:solid;text-decoration-color:#000;text-transform:none;block-progression:tb;isolation:auto;mix-blend-mode:normal" d="M4.484 1038.303a.5.5 0 0 0-.484.498v1.525a.5.5 0 1 0 1 0v-.709l5 2.541v4.979l-5-2.541V1043.758a.5.5 0 1 0-1 0V1044.902a.5.5 0 0 0 .273.446l6 3.05a.5.5 0 0 0 .727-.447v-6.1a.5.5 0 0 0-.273-.445l-6-3.05a.5.5 0 0 0-.243-.054zm.008 3.04a.5.5 0 0 0-.492.509v.38a.5.5 0 1 0 1 0v-.38a.5.5 0 0 0-.508-.508z" overflow="visible" transform="translate(0 -1020.362)"></path><path fill="#2b4255" style="line-height:normal;text-indent:0;text-align:start;text-decoration-line:none;text-decoration-style:solid;text-decoration-color:#000;text-transform:none;block-progression:tb;isolation:auto;mix-blend-mode:normal" d="M16.492 1038.295a.5.5 0 0 0-.492.506v5.795l-5 2.54v-5.284a.5.5 0 1 0-1 0v6.1a.5.5 0 0 0 .727.446l6-3.05a.5.5 0 0 0 .273-.446v-6.101a.5.5 0 0 0-.508-.506z" overflow="visible" transform="translate(0 -1020.362)"></path><path fill="#2b4255" fill-rule="evenodd" style="line-height:normal;text-indent:0;text-align:start;text-decoration-line:none;text-decoration-style:solid;text-decoration-color:#000;text-transform:none;block-progression:tb;isolation:auto;mix-blend-mode:normal" d="M10.38 1034.853a.5.5 0 0 0-.22.07l-5.908 3.415a.5.5 0 0 0 .025.878l6.088 3.08a.5.5 0 0 0 .477-.013l5.906-3.415a.5.5 0 1 0-.5-.865l-5.674 3.278-5.021-2.541 5.107-2.952a.5.5 0 0 0-.28-.935z" overflow="visible" transform="translate(0 -1020.362)"></path><path fill="#2b4255" style="line-height:normal;text-indent:0;text-align:start;text-decoration-line:none;text-decoration-style:solid;text-decoration-color:#000;text-transform:none;block-progression:tb;isolation:auto;mix-blend-mode:normal" d="M28.486 1038.303a.5.5 0 0 0-.21.053l-6.003 3.05a.5.5 0 0 0-.273.446v6.1a.5.5 0 0 0 .727.446l6.002-3.05a.5.5 0 0 0 .273-.446v-6.101a.5.5 0 0 0-.516-.498zm-.484 1.314v4.979l-5.002 2.54v-4.978l5.002-2.54z" overflow="visible" transform="translate(0 -1020.362)"></path><path fill="#2b4255" fill-rule="evenodd" style="line-height:normal;text-indent:0;text-align:start;text-decoration-line:none;text-decoration-style:solid;text-decoration-color:#000;text-transform:none;block-progression:tb;isolation:auto;mix-blend-mode:normal" d="M22.535 1034.853a.5.5 0 0 0-.209.938l5.123 2.926-5.01 2.566-5.689-3.25a.5.5 0 1 0-.496.87l5.926 3.382a.5.5 0 0 0 .474.012l6.075-3.111a.5.5 0 0 0 .019-.881l-5.926-3.383a.5.5 0 0 0-.287-.068z" overflow="visible" transform="translate(0 -1020.362)"></path><path fill="#2b4255" style="line-height:normal;text-indent:0;text-align:start;text-decoration-line:none;text-decoration-style:solid;text-decoration-color:#000;text-transform:none;block-progression:tb;isolation:auto;mix-blend-mode:normal" d="M16.492 1038.295a.5.5 0 0 0-.492.506v6.101a.5.5 0 0 0 .273.446l6 3.05a.5.5 0 0 0 .727-.447v-6.1a.5.5 0 1 0-1 0v5.286l-5-2.541v-5.795a.5.5 0 0 0-.508-.506z" overflow="visible" transform="translate(0 -1020.362)"></path><path fill="#f05542" style="line-height:normal;text-indent:0;text-align:start;text-decoration-line:none;text-decoration-style:solid;text-decoration-color:#000;text-transform:none;block-progression:tb;isolation:auto;mix-blend-mode:normal" d="M22.486 1028.809a.5.5 0 0 0-.213.055l-6 3.048a.5.5 0 0 0-.273.447v6.1a.5.5 0 0 0 .727.445l6-3.05a.5.5 0 0 0 .273-.446v-6.099a.5.5 0 0 0-.514-.5zm-.486 1.314v4.979l-5 2.542v-4.978l5-2.543z" overflow="visible" transform="translate(0 -1020.362)"></path><path fill="#f05542" fill-rule="evenodd" style="line-height:normal;text-indent:0;text-align:start;text-decoration-line:none;text-decoration-style:solid;text-decoration-color:#000;text-transform:none;block-progression:tb;isolation:auto;mix-blend-mode:normal" d="M16.498 1025.361a.5.5 0 0 0-.236.061l-6 3.248a.5.5 0 0 0 0 .881l6 3.248a.5.5 0 0 0 .476 0l6-3.248a.5.5 0 0 0 0-.88l-.75-.405-.75-.406a.5.5 0 1 0-.474.879l.687.37-4.951 2.682-4.95-2.68 4.95-2.679.512.275.75.407a.5.5 0 1 0 .476-.88l-.75-.405-.75-.407a.5.5 0 0 0-.24-.06zm3.002 1.621a.5.5 0 0 0-.238.944l.375.203a.5.5 0 1 0 .476-.879l-.375-.203a.5.5 0 0 0-.238-.065Z" overflow="visible" transform="translate(0 -1020.362)"></path><path fill="#f05542" style="line-height:normal;text-indent:0;text-align:start;text-decoration-line:none;text-decoration-style:solid;text-decoration-color:#000;text-transform:none;block-progression:tb;isolation:auto;mix-blend-mode:normal" d="M10.486 1028.809a.5.5 0 0 0-.486.5v6.1a.5.5 0 0 0 .273.444l6 3.051a.5.5 0 0 0 .727-.445v-6.1a.5.5 0 0 0-.273-.447l-6-3.049a.5.5 0 0 0-.24-.055zm.514 1.314 5 2.543v4.979l-5-2.543v-4.979z" overflow="visible" transform="translate(0 -1020.362)"></path></g></svg>